# xmcd
#
# Track frame offsets:
#	182
#	17290
#	34922
#	51362
#	69295
#	85915
#	103847
#	122295
#	139317
#	157332
#	174542
#	194900
#	211292
#	229015
#	246670
#	263730
#	285557
#	303817
#	322390
#	337662
#
# Disc length: 4743 seconds
#
# Revision: 1
# Processed by: cddbd v1.5.1PL0 Copyright (c) Steve Scherf et al.
# Submitted via: audiograbber 1.83.01
#
DISCID=27128514
DTITLE=Bad Boys Blue - Portrait
DYEAR=1900
DGENRE=Pop
TTITLE0=Lady In Black
TTITLE1=A Train To Nowhere
TTITLE2=A World Without You (Michelle)
TTITLE3=You're A Woman
TTITLE4=Pretty Young Girl
TTITLE5=Kisses And Tears
TTITLE6=I Wanna Hear Your Heartbeat
TTITLE7=Love Really Hurts Without You
TTITLE8=Gimme Gimme Your Lovin' (Little Lady)
TTITLE9=Don't Walk Away, Suzanne
TTITLE10=Hungry For Love
TTITLE11=How I Need You
TTITLE12=Queen Of Hearts
TTITLE13=House Of Silence
TTITLE14=Lovers In The Sand
TTITLE15=Jungle In My Heart
TTITLE16=L.O.V.E. In My Car
TTITLE17=Come Back And Stay
TTITLE18=I Don't Know Her Name
TTITLE19=Save Your Love
EXTD=
EXTT0=
EXTT1=
EXTT2=
EXTT3=
EXTT4=
EXTT5=
EXTT6=
EXTT7=
EXTT8=
EXTT9=
EXTT10=
EXTT11=
EXTT12=
EXTT13=
EXTT14=
EXTT15=
EXTT16=
EXTT17=
EXTT18=
EXTT19=
PLAYORDER=
